<svg width="686" height="560" viewBox="0 0 686 560" fill="none" xmlns="http://www.w3.org/2000/svg">
<path d="M555 557.5C530.2 557.4 505.3 557.4 480.5 557.3C431.8 557.2 383.2 557.2 334.5 557.2C273.7 557.2 212.8 558.3 151.9 557.2C111.5 556.5 129.8 530.7 127.6 503.2C125.5 477.9 106.5 460.2 99 438C75.8 369.4 132.4 234.7 132.4 234.7L119.8 222.1C107.6 209.9 97 196.2 88.3 181.4C66.9 145 25.5 74.8 10.3 50.4C3.7 39.8 -1.6 26.5 0.499996 13.7C1.3 9 3.9 4.4 8.2 2.3C10.9 1 13.9 0.900001 16.8 0.800001C25.6 0.600001 33.7 1.4 42.5 3C84.2 10.7 124.2 27.4 158.8 51.8C195 77.3 230.5 103.2 261.8 134.9C297 126.6 429.3 131.3 429.3 131.3C439.8 125.4 450.5 120.1 461.3 114.9C493.2 99.6 525.8 85.8 558.6 72.9C588.5 61.1 619.4 48 651.1 42.5C658.4 41.2 666.1 41.1 672.8 44C685.2 49.4 685.5 64.4 685.8 76C686.4 105.3 681.3 124.6 663.8 147.9C645.7 172 628.2 196.5 608.3 219.1C605.7 222.1 571.7 257.4 568.6 252.4C587.9 283.8 594.3 322.3 602.7 357.6C611.6 395.3 619.7 433.2 625 471.6C627.8 492.3 636.3 520.9 632.9 541.6C631.6 549.4 626 553.7 618.5 555.9C599.4 561.9 574.8 557.5 555 557.5Z" fill="#7694C1"/>
<path d="M612.1 534.5H147.6C151.5 524.3 156.6 500.6 156.3 497.8C155.5 490.3 151.5 483.4 147.6 476.8C145.9 474 144.4 471.3 143.1 468.7C139.4 461.1 135.8 453.2 132.4 445.6C130.8 442.1 129.2 438.6 127.6 435.1C96.3 367.3 163.5 230.4 164.2 229.1L165.1 227.3L163.6 225.9C128.5 195 96.9 154.2 64.2 97.7C56.4 84.2 48.8 70.6 41.8 57.3C37.6 49.3 34 41.7 31 34.2C30.8 33.6 30 31 29.3 28.5C28.1 24.3 27.2 21.2 26.5 18.9C172.8 65 251 158.9 251.8 159.9L252.9 161.2L254.6 160.7C319.5 143.2 434 157.1 435.1 157.2L436 157.3L436.8 156.9C519.7 111 643.7 69.7 665.7 62.5C665.8 69.4 665.2 76.4 664.6 83.2C664.4 85.7 664.2 88.1 664 90.6C662.6 110.6 649.6 128.6 638.1 144.5L636.4 146.9C614.8 177 592.8 201.3 569.1 221.2C565.7 224 562 227 557.4 230.7C555.1 232.5 552.1 234.8 549 237.1C547.2 238.4 542.7 240.9 541.1 241.7L538.2 243.2L540.3 245.7C540.4 245.8 546.4 253.2 549 257.1C560.1 274.1 566.1 294.1 570.1 309.5C573.1 321.2 575.6 333.3 578 345C579.3 351.5 580.7 358.2 582.1 364.8C593.6 417.7 603.7 474.8 612.1 534.5Z" fill="#ECBC3D"/>
<path d="M664.3 63.6C664.4 70.5 663.8 77.5 663.2 84.3C663 86.8 662.8 89.2 662.6 91.7C661.2 111.7 648.2 129.7 636.7 145.6L635 148C633.9 149.5 632.8 151 631.7 152.5C630.7 153.9 629.7 155.3 628.6 156.6C643.1 124.1 643.5 84.8 643.7 68.6C653.2 65.6 660.5 64.9 664.3 63.6ZM69.6 36.2C62.8 33.4 55.9 30.7 48.7 28C48.3 27.8 47.8 27.7 47.4 27.5C44.1 26.3 40.7 25.1 37.4 24C36.9 23.8 36.3 23.6 35.8 23.5C32.3 22.3 28.8 21.2 25.2 20C25.9 22.3 26.8 25.4 28 29.6C28.7 32.1 29.4 34.7 29.7 35.3C32.7 42.8 36.2 50.3 40.5 58.4C47.5 71.7 55.1 85.3 62.9 98.8C64.8 102 66.6 105.2 68.5 108.3C70.3 111.4 72.2 114.4 74 117.4C63.7 79.7 67.6 47.8 69.6 36.2Z" fill="black"/>
<path d="M271.2 286.2C271.2 301.7 261.2 314.2 248.8 314.2C236.5 314.2 226.4 301.6 226.4 286.2C226.4 270.8 236.4 258.2 248.8 258.2C261.2 258.2 271.2 270.8 271.2 286.2ZM455.1 258.2C442.8 258.2 432.7 270.8 432.7 286.2C432.7 301.6 442.7 314.2 455.1 314.2C467.4 314.2 477.5 301.6 477.5 286.2C477.5 270.8 467.5 258.2 455.1 258.2ZM335.3 328C325.5 328 319.2 331.4 319.2 333.8C319.2 336.2 325.5 339.6 335.3 339.6C345.1 339.6 351.4 336.2 351.4 333.8C351.4 331.4 345.1 328 335.3 328Z" fill="black"/>
<path d="M252.7 276.6C252.7 281.9 248.4 286.2 243.1 286.2C237.8 286.2 233.5 281.9 233.5 276.6C233.5 271.3 237.8 267 243.1 267C248.4 267 252.7 271.3 252.7 276.6ZM449.4 267C444.1 267 439.8 271.3 439.8 276.6C439.8 281.9 444.1 286.2 449.4 286.2C454.7 286.2 459 281.9 459 276.6C459 271.3 454.7 267 449.4 267Z" fill="white"/>
<path d="M555.3 376.8C555.3 395.4 537.9 410.4 516.4 410.4C494.9 410.4 477.5 395.4 477.5 376.8C477.5 358.2 494.9 343.2 516.4 343.2C537.9 343.2 555.3 358.2 555.3 376.8ZM177.7 343.2C157.8 343.2 141.7 357.1 141.7 374.3C141.7 391.5 157.8 405.4 177.7 405.4C197.6 405.4 213.7 391.5 213.7 374.3C213.7 357.1 197.6 343.2 177.7 343.2Z" fill="#CE5828"/>
<path d="M388.4 412.9C388.4 422.9 386.1 430.2 381.2 435.1C375.3 441 365.7 443.7 349.9 443.7C326.9 443.7 311.4 425 311.4 407.6C311.4 390.8 326.1 380.4 349.9 380.4C372.4 380.4 388.2 382.7 388.4 412.9Z" fill="#EF805F"/>
<path d="M669.6 59.9L669.5 56.4L666.2 57.5C664.8 57.9 525 102.6 433.7 153C423 151.7 316.8 140 253.7 156.3C252.8 156.5 245.4 147.3 244.6 146.4C238.7 140.3 232.5 134.4 226.3 128.7C206.5 110.7 185.1 94.3 162.7 79.5C131.8 59.1 98.8 41.9 64.4 28.2C57.4 25.4 50.3 22.7 43.1 20.2C38.7 18.7 34.4 16.8 30 15.3C25.7 13.9 20.7 11.8 19.3 18.2C18.6 21.3 20.9 24.4 21.8 27.2C30 53.4 44.7 77.7 58.4 101.3C81.5 141.1 107.7 179.9 140 212.9C145.6 218.6 151.4 224.2 157.3 229.5C157.1 229.9 157 230.2 157 230.3C157 230.4 156.9 230.5 156.9 230.7C146.9 251.6 91.5 373.1 121.6 438.5C123.2 442 124.8 445.5 126.4 449C129.9 456.6 133.5 464.5 137.2 472.2C138.6 475 140.3 477.9 141.9 480.7C145.5 486.8 149.2 493.2 149.9 499.5C150 502.7 143.6 530.5 140.8 535.7H150.1C152 535.7 154.3 515.4 154.6 512.8C155.9 503.6 158 496 155 487.2C148.9 469.5 134.5 452.3 127.7 435C118.9 412.6 118.7 389.8 121.7 366.3C124.9 340.7 133.6 315.5 142 291.1C148 273.5 176.5 209.2 181.2 203.2C181.7 202.5 182.3 201.6 181.9 200.8C181.3 199.7 179.6 200.1 178.5 200.8C172.6 204.5 168.2 210 163.8 215.4C161.7 218 159.6 222.5 159.6 222.5C159.6 222.5 110.2 165.8 103.7 156.7C97.5 148 88.3 139.2 84.8 129C76 103.6 74.9 79.1 76.8 52.8C76.9 51.7 80.5 42.1 80.3 41.9C194.7 90.8 250.1 160.1 250.8 160.9L251.9 162.2L253.6 163.5C318.5 146 434.7 161.6 435.9 161.8C435.9 161.8 557.7 101.7 620.6 78.6C627.3 76.1 630.5 75.6 637.2 73.3C636.2 73.7 634.1 105.9 633.4 109.7C631 123 630.9 136 625.8 148.5C620.3 161.8 613.1 173.9 604.6 184.9C596.1 196 586.3 206.1 575.6 215.6C566.1 224.1 556.2 228.6 544.8 234.5C538.5 237.8 533.8 234 529.3 230.3C523.3 225.3 516.6 220.7 509.1 218.2C507.7 217.7 506.2 218.5 505.7 219.9C505.2 221.3 506 222.8 507.4 223.3C531.4 231.3 546.8 255.3 556.4 277.6C568.5 305.8 572.5 336.2 579.1 365.8C590.8 418.7 600.9 475.7 609.3 535.5H616.5C608.1 475.3 597.9 417.9 586.2 364.7C584.8 358.1 583.4 351.5 582.1 345C579.7 333.3 577.2 321.1 574.2 309.3C570.1 293.4 563.9 273 552.4 255.3C550.6 252.6 547.5 248.5 545.4 245.9C547.3 244.8 549.7 243.4 551.1 242.4C554.3 240.1 557.3 237.7 559.7 235.9C564.4 232.2 568.2 229.2 571.6 226.3C595.7 206.1 618 181.5 639.8 151.1L641.5 148.7C653.4 132.2 666.8 113.5 668.4 92C668.6 89.6 668.8 87.1 669 84.7C669.3 76.7 670 68.3 669.6 59.9ZM62.8 98.7C55 85.2 47.4 71.6 40.4 58.3C36.2 50.3 32.6 42.7 29.6 35.2C29.4 34.6 28.6 32 27.9 29.5C26.7 25.3 25.8 22.2 25.1 19.9C40.7 24.8 55.5 30.3 69.5 36.1C67.5 47.7 63.6 79.6 73.8 117.3C70.2 111.3 66.5 105.1 62.8 98.7ZM663.2 84.3C663 86.8 662.8 89.2 662.6 91.7C661.2 111.7 648.2 129.7 636.7 145.6L635 148C632.9 151 630.8 153.8 628.6 156.7C643.3 123.8 643.8 85.5 644.1 69.7C652.6 66.8 660.7 64.7 664.3 63.5C664.4 70.6 663.8 77.6 663.2 84.3ZM247.1 252.8C232.8 252.8 221.2 268.8 221.2 286.2C221.2 303.6 234.6 317.8 248.9 317.8C269.3 317.8 273.7 303.6 274.8 286.2C276.3 263 261.4 252.8 247.1 252.8ZM226.5 286.2C226.5 270.7 236.5 258.2 248.9 258.2C261.2 258.2 271.3 270.8 271.3 286.2C271.3 301.6 261.3 314.2 248.9 314.2C236.5 314.3 226.5 301.7 226.5 286.2ZM455.1 252.8C440.8 252.8 429.2 268.8 429.2 286.2C429.2 303.6 440.8 319.6 455.1 319.6C475.6 319.6 482.8 303.6 482.8 286.2C482.8 268.8 469.4 252.8 455.1 252.8ZM432.8 286.2C432.8 270.7 442.8 258.2 455.2 258.2C467.5 258.2 477.6 270.8 477.6 286.2C477.6 301.6 467.6 314.2 455.2 314.2C442.8 314.3 432.8 301.7 432.8 286.2ZM338.9 322.6C327.7 322.6 314.4 328.6 315.6 333.8C317.5 341.7 324.1 343.2 335.3 343.2C346.5 343.2 355 339.2 355 333.8C355 328.4 350.1 322.6 338.9 322.6ZM335.3 339.6C325.5 339.6 319.2 336.2 319.2 333.8C319.2 331.4 325.5 328 335.3 328C345.1 328 351.4 331.4 351.4 333.8C351.4 336.2 345.1 339.6 335.3 339.6ZM349.9 376.8C324 378.4 306.1 388.6 306.1 407.5C306.1 426.7 324.8 449 349.9 449C361.2 449 375.2 446.1 383.7 437.6C389.3 432 392 423.9 391.9 412.9C391.8 379.5 378.9 375 349.9 376.8ZM311.5 407.5C311.5 390.7 326.2 380.3 350 380.3C372.4 380.3 388.3 382.6 388.5 412.8C388.5 422.8 386.2 430.1 381.3 435C375.4 440.9 365.8 443.6 350 443.6C326.9 443.6 311.5 425 311.5 407.5Z" fill="black"/>
</svg>
